<?xml version="1.0" encoding="UTF-8" standalone="no"?>
<!-- Created with Inkscape (http://www.inkscape.org/) -->

<svg
   width="84.244987mm"
   height="12.939778mm"
   viewBox="0 0 84.244987 12.939778"
   version="1.1"
   id="svg124800"
   sodipodi:docname="drawing.svg"
   inkscape:version="1.1 (ce6663b3b7, 2021-05-25)"
   xmlns:inkscape="http://www.inkscape.org/namespaces/inkscape"
   xmlns:sodipodi="http://sodipodi.sourceforge.net/DTD/sodipodi-0.dtd"
   xmlns="http://www.w3.org/2000/svg"
   xmlns:svg="http://www.w3.org/2000/svg">
  <sodipodi:namedview
     id="namedview124802"
     pagecolor="#505050"
     bordercolor="#ffffff"
     borderopacity="1"
     inkscape:pageshadow="0"
     inkscape:pageopacity="0"
     inkscape:pagecheckerboard="1"
     inkscape:document-units="mm"
     showgrid="false"
     inkscape:zoom="1.4645623"
     inkscape:cx="198.69418"
     inkscape:cy="-48.137249"
     inkscape:window-width="1920"
     inkscape:window-height="1004"
     inkscape:window-x="0"
     inkscape:window-y="0"
     inkscape:window-maximized="1"
     inkscape:current-layer="layer1" />
  <defs
     id="defs124797" />
  <g
     inkscape:label="Layer 1"
     inkscape:groupmode="layer"
     id="layer1"
     transform="translate(-41.702325,-75.548359)">
    <g
       aria-label="CARODUS"
       id="text49672"
       style="font-size:64px;line-height:1.25;font-family:'Liberation Mono';-inkscape-font-specification:'Liberation Mono';fill:#ffffff"
       transform="matrix(0.26458333,0,0,0.26458333,41.901061,25.221469)">
      <path
         d="m 40.092621,206.80562 h -9.15625 q -0.78125,-3.34375 -2.125,-5 -2.6875,-3.375 -7.875,-3.375 -7.34375,0 -10.40625,7.09375 -1.2187497,2.875 -1.5624997,6.71875 l -0.125,2.625 q 0,10.9375 6.0312497,14.65625 2.5,1.53125 5.75,1.53125 7.09375,0 9.46875,-5.75 0.65625,-1.59375 0.84375,-3.59375 h 9.34375 q -0.53125,9.46875 -7.8125,14.21875 -5,3.1875 -12.09375,3.1875 -10.9999997,0 -16.7187497,-8.1875 -4.40624997,-6.34375 -4.40624997,-16.1875 0,-13.3125 7.68749997,-19.84375 5.4999997,-4.6875 13.6874997,-4.6875 10.3125,0 15.875,6.8125 l 0.4375,0.5625 q 2.6875,3.53125 3.15625,9.21875 z"
         style="font-weight:bold;font-family:'Mukti Narrow';-inkscape-font-specification:'Mukti Narrow'"
         id="path124667" />
      <path
         d="m 74.686371,228.24312 h -17.46875 l -3.125,9.40625 h -9.8125 l 16.59375,-46.65625 h 10.625 l 16.125,46.65625 h -9.875 z m -2.625,-8 -6.0625,-18.25 -6.09375,18.25 z"
         style="font-weight:bold;font-family:'Mukti Narrow';-inkscape-font-specification:'Mukti Narrow'"
         id="path124669" />
      <path
         d="m 103.53012,219.14937 v 18.5 h -9.593749 v -46.65625 h 25.031249 q 5.875,0 9,3.1875 3.53125,3.59375 3.53125,9.40625 0,8.46875 -7.875,11.53125 3.65625,1.59375 4.6875,2.9375 1.40625,1.9375 1.65625,8.34375 0.0625,1.90625 0.125,5.6875 0,2.5625 1.78125,3.65625 l 0.0625,0.0625 0.1875,0.125 v 1.71875 h -10.28125 q -1.34375,-2.4375 -1.46875,-5.9375 v -2.0625 l 0.0625,-3.0625 0.0625,-1.875 q 0,-4.65625 -3.90625,-5.375 -0.90625,-0.1875 -2.0625,-0.1875 z m 0,-8 h 11.59375 q 3.625,0 5.0625,-1.21875 1.71875,-1.46875 1.71875,-5 0,-3.25 -1.71875,-4.71875 -1.4375,-1.15625 -5.0625,-1.21875 h -11.59375 z"
         style="font-weight:bold;font-family:'Mukti Narrow';-inkscape-font-specification:'Mukti Narrow'"
         id="path124671" />
      <path
         d="m 159.96762,190.21187 q 9.96875,0 16,6.46875 6.25,6.71875 6.53125,17.46875 v 0.84375 q 0,8.5 -4.5625,15.15625 -0.875,1.34375 -1.96875,2.5 -6.03125,6.46875 -15.9375,6.46875 -9.9375,0 -15.9375,-6.46875 -5.78125,-6.125 -6.46875,-15.8125 l -0.0625,-2.15625 q 0,-10.0625 5.625,-16.96875 l 0.0625,-0.0625 0.0625,-0.0625 q 0,0 0.0625,-0.0625 0.34375,-0.375 0.71875,-0.84375 5.9375,-6.46875 15.875,-6.46875 z m 0.0625,8.21875 q -6.90625,0 -10.4375,6 v 0.0625 q -2.4375,4.15625 -2.4375,10.1875 0,9.21875 5.25,13.625 3.1875,2.625 7.625,2.625 6.71875,0 10.28125,-5.875 2.5625,-4.125 2.5625,-10.125 0,-9.84375 -5.5625,-14.15625 -3.0625,-2.34375 -7.28125,-2.34375 z"
         style="font-weight:bold;font-family:'Mukti Narrow';-inkscape-font-specification:'Mukti Narrow'"
         id="path124673" />
      <path
         d="m 189.71762,237.64937 v -46.65625 h 18.21875 q 9.40625,0 13.78125,4.34375 l 0.9375,1.03125 q 5.71875,6.71875 5.71875,17.90625 0,11.28125 -5.71875,17.9375 -4.21875,5.125 -13.25,5.4375 h -1.46875 z m 9.59375,-8 h 8.625 q 10.75,0 10.8125,-15.28125 0,-15.375 -10.8125,-15.375 h -8.625 z"
         style="font-weight:bold;font-family:'Mukti Narrow';-inkscape-font-specification:'Mukti Narrow'"
         id="path124675" />
      <path
         d="m 263.21762,190.99312 h 9.59375 v 31.625 q 0,7.65625 -4.53125,11.78125 -5.1875,4.71875 -13.9375,4.71875 -8.71875,0 -13.96875,-4.71875 -4.53125,-4.03125 -4.53125,-11.78125 v -31.625 h 9.59375 v 31.625 q 0,8.0625 8.90625,8.3125 8.625,0 8.875,-8.3125 z"
         style="font-weight:bold;font-family:'Mukti Narrow';-inkscape-font-specification:'Mukti Narrow'"
         id="path124677" />
      <path
         d="m 315.99887,205.21187 h -8.96875 q -0.4375,-6.46875 -8,-7.25 l -1.78125,-0.0625 q -5.75,0 -7.5,3.40625 -0.0625,0.0625 -0.0625,0.0625 -0.5,1.03125 -0.5,2.3125 0,2.9375 2.6875,4.28125 1.46875,0.75 4.09375,1.34375 0.0625,0 0.125,0.0625 l 1.9375,0.375 7.28125,1.40625 q 9.28125,1.78125 11.53125,7.625 0.8125,2.15625 0.8125,5.25 0,8.9375 -7.78125,12.78125 -4.625,2.3125 -11.34375,2.3125 -13.75,0 -17.84375,-9.09375 -1.28125,-2.75 -1.46875,-6.3125 h 9.34375 q 0.375,6.375 7.46875,7.53125 l 3,0.1875 q 6.9375,0 8.84375,-3.84375 0.5625,-1.0625 0.5625,-2.40625 0,-3.71875 -3.6875,-5.375 -1.875,-0.84375 -5.0625,-1.40625 l -6.53125,-1.28125 q -9.21875,-1.75 -11.78125,-6.40625 l -0.0625,-0.0625 v -0.0625 q 0,0 -0.0625,-0.0625 -1.21875,-2.375 -1.21875,-5.96875 0,-9.15625 8,-12.59375 4.03125,-1.75 9.65625,-1.75 10.1875,0 15.0625,5.3125 3.25,3.59375 3.25,9.6875 z"
         style="font-weight:bold;font-family:'Mukti Narrow';-inkscape-font-specification:'Mukti Narrow'"
         id="path124679" />
    </g>
  </g>
</svg>
